<svg xmlns="http://www.w3.org/2000/svg" xmlns:xlink="http://www.w3.org/1999/xlink" version="1.1" x="0px" y="0px" viewBox="0 0 34 42.5" enable-background="new 0 0 34 34" xml:space="preserve"><g><path d="M7.99988,1.98788v3c0,0.54999,0.45001,1,1,1s1-0.45001,1-1v-3c0-0.54999-0.45001-1-1-1S7.99988,1.4379,7.99988,1.98788z"/><path d="M23.99988,1.98788v3c0,0.54999,0.45001,1,1,1s1-0.45001,1-1v-3c0-0.54999-0.45001-1-1-1S23.99988,1.4379,23.99988,1.98788z   "/><path d="M31,3.98782h-3v0.86865c0,1.45111-0.97211,2.78882-2.39545,3.07135C23.69305,8.30722,22,6.8356,22,4.98782v-1H12v0.86865   c0,1.45111-0.97211,2.78882-2.39545,3.07135C7.69305,8.30722,6,6.8356,6,4.98782v-1H3c-1.09998,0-2,0.90002-2,2v25   c0,1.09998,0.90002,2,2,2l27.9693,0.02429c1.10437,0.00098,2.00049-0.89331,2.00177-1.99768L33,5.98782   C33,4.88785,32.09998,3.98782,31,3.98782z M31,29.99783c0,0.55249-0.44794,1.00024-1.00037,1l-26-0.01001   C3.44983,30.98764,3,30.53763,3,29.98782v-18c0-0.56,0.45001-1,1-1h26c0.54999,0,1,0.44,1,1V29.99783z"/><path d="M23.36182,14.61978c-0.78027-0.78125-2.04785-0.78125-2.82813,0l-3.58594,3.58594l-3.58594-3.58594   c-0.78027-0.78125-2.04785-0.78125-2.82813,0c-0.78125,0.78125-0.78125,2.04688,0,2.82813l3.58594,3.58594l-3.58594,3.58594   c-0.78125,0.78125-0.78125,2.04688,0,2.82813c0.78021,0.78113,2.04785,0.78125,2.82813,0l3.58594-3.58594l3.58594,3.58594   c0.78021,0.78113,2.04785,0.78125,2.82813,0c0.78125-0.78125,0.78125-2.04688,0-2.82813l-3.58594-3.58594l3.58594-3.58594   C24.14307,16.66666,24.14307,15.40103,23.36182,14.61978z"/></g><text x="0" y="49" fill="#000000" font-size="5px" font-weight="bold" font-family="'Helvetica Neue', Helvetica, Arial-Unicode, Arial, Sans-serif">Created by Vectors Point</text><text x="0" y="54" fill="#000000" font-size="5px" font-weight="bold" font-family="'Helvetica Neue', Helvetica, Arial-Unicode, Arial, Sans-serif">from the Noun Project</text></svg>